<svg width="82" height="26" viewBox="0 0 82 26" fill="none" xmlns="http://www.w3.org/2000/svg">
<path d="M0 0.245361H25.5283V25.7737C11.4294 25.7737 0 14.3443 0 0.245361Z" fill="black"/>
<path d="M25.5283 0.245361L25.5283 25.7737L1.03282e-05 25.7737C1.09445e-05 11.6748 11.4294 0.245361 25.5283 0.245361Z" fill="white" fill-opacity="0.52"/>
<path d="M0 25.7734L3.04422e-07 0.245129L25.5283 0.245129C25.5283 14.344 14.0989 25.7734 0 25.7734Z" fill="black" fill-opacity="0.48"/>
<path d="M25.5283 0.245361C25.5283 14.3443 14.0989 25.7737 0 25.7737C6.16282e-07 11.6748 11.4294 0.245361 25.5283 0.245361Z" fill="black" fill-opacity="0.48"/>
<path d="M80.051 8.26112H73.7647V5.43364H80.051V8.26112ZM68.7411 3.78657C68.7411 5.25063 68.4666 6.65064 67.9176 7.9866C67.3869 9.32256 66.5725 10.4938 65.4744 11.5004C64.3947 12.4886 63.077 13.2115 61.5214 13.669L59.8469 10.9239C61.1463 10.503 62.2443 9.90819 63.1411 9.13955C64.0561 8.37092 64.7332 7.52908 65.1725 6.61404C65.6117 5.6807 65.8313 4.73821 65.8313 3.78657V2.3591H68.7411V3.78657ZM69.4274 3.78657C69.4274 4.71991 69.6379 5.61665 70.0588 6.47679C70.4797 7.33693 71.1202 8.11471 71.9804 8.81014C72.8405 9.48727 73.9019 10.0088 75.1647 10.3749L73.5176 13.1474C71.9987 12.6899 70.7176 12.0036 69.6745 11.0886C68.6313 10.1552 67.8535 9.06635 67.3411 7.8219C66.8287 6.57744 66.5725 5.23233 66.5725 3.78657V2.3591H69.4274V3.78657ZM74.4235 4.00618H60.8077V1.20615H74.4235V4.00618ZM81.2589 13.12H77.6902V0.245361H81.2589V13.12ZM81.2589 20.971H68.0548V24.2103H64.5685V18.3906H77.7451V16.9082H64.5136V14.1631H81.2589V20.971ZM82.0001 25.3358H64.5685V22.5907H82.0001V25.3358Z" fill="black"/>
<path d="M53.3409 4.52743H37.4466V1.69995H53.3409V4.52743ZM57.7605 15.3707H34.8113V12.5157H57.7605V15.3707ZM47.9604 25.61H44.3643V14.5197H47.9604V25.61ZM55.0428 3.95095C55.0428 5.83593 54.9879 7.52876 54.8781 9.02943C54.7683 10.5118 54.4938 12.2504 54.0546 14.2452L50.5683 13.8059C51.0075 11.9576 51.282 10.3105 51.3918 8.86472C51.5016 7.40065 51.5565 5.76273 51.5565 3.95095V1.69995H55.0428V3.95095Z" fill="black"/>
</svg>
