<svg width="14" height="16" viewBox="0 0 14 16" fill="none" xmlns="http://www.w3.org/2000/svg">
<path d="M6.89209 0C6.60498 0 6.36914 0.0922852 6.18457 0.276855C6 0.461426 5.90771 0.697266 5.90771 0.984375V1.56885C4.75928 1.81494 3.82617 2.37891 3.1084 3.26074C2.37012 4.14258 1.99072 5.18848 1.97021 6.39844V6.98291C1.94971 8.45947 1.45752 9.76172 0.493652 10.8896L0.247559 11.1665C-0.019043 11.4741 -0.0703125 11.8228 0.09375 12.2124C0.27832 12.5815 0.575684 12.7764 0.98584 12.7969H12.7983C13.2085 12.7764 13.5059 12.5815 13.6904 12.2124C13.8545 11.8228 13.8032 11.4741 13.5366 11.1665L13.3213 10.8896C12.3369 9.78223 11.8345 8.47998 11.814 6.98291V6.39844C11.7935 5.18848 11.4141 4.14258 10.6758 3.26074C9.95801 2.37891 9.0249 1.81494 7.87646 1.56885V0.984375C7.87646 0.697266 7.78418 0.461426 7.59961 0.276855C7.41504 0.0922852 7.1792 0 6.89209 0ZM8.27637 15.1655C8.66602 14.7759 8.86084 14.3145 8.86084 13.7812H6.89209H4.92334C4.92334 14.3145 5.11816 14.7759 5.50781 15.1655C5.89746 15.5552 6.35889 15.75 6.89209 15.75C7.42529 15.75 7.88672 15.5552 8.27637 15.1655Z" fill="#4B5563"/>
</svg>